<mxfile host="app.diagrams.net" modified="2022-09-22T09:34:43.024Z" agent="5.0 (X11; Linux x86_64) AppleWebKit/537.36 (KHTML, like Gecko) Chrome/104.0.0.0 Safari/537.36" etag="IzUfTT0wGfWxg4GhiGpw" version="20.3.5" type="github">
  <diagram id="R2lEEEUBdFMjLlhIrx00" name="Page-1">
    <mxGraphModel dx="849" dy="454" grid="1" gridSize="10" guides="1" tooltips="1" connect="1" arrows="1" fold="1" page="1" pageScale="1" pageWidth="850" pageHeight="1100" math="0" shadow="0" extFonts="Permanent Marker^https://fonts.googleapis.com/css?family=Permanent+Marker">
      <root>
        <mxCell id="0" />
        <mxCell id="1" parent="0" />
        <mxCell id="3NOah_PCtpc5vJygW-3I-1" value="&lt;font style=&quot;font-size: 16px;&quot;&gt;邮件联系人&lt;/font&gt;" style="rounded=0;whiteSpace=wrap;html=1;" vertex="1" parent="1">
          <mxGeometry x="450" y="340" width="100" height="50" as="geometry" />
        </mxCell>
        <mxCell id="3NOah_PCtpc5vJygW-3I-29" style="edgeStyle=none;rounded=0;orthogonalLoop=1;jettySize=auto;html=1;exitX=1;exitY=0.5;exitDx=0;exitDy=0;entryX=0.25;entryY=1;entryDx=0;entryDy=0;strokeColor=default;fontSize=16;endArrow=none;endFill=0;fillColor=none;" edge="1" parent="1" source="3NOah_PCtpc5vJygW-3I-6" target="3NOah_PCtpc5vJygW-3I-1">
          <mxGeometry relative="1" as="geometry" />
        </mxCell>
        <mxCell id="3NOah_PCtpc5vJygW-3I-6" value="用户名" style="ellipse;whiteSpace=wrap;html=1;fontSize=16;" vertex="1" parent="1">
          <mxGeometry x="310" y="390" width="120" height="40" as="geometry" />
        </mxCell>
        <mxCell id="3NOah_PCtpc5vJygW-3I-28" style="edgeStyle=none;rounded=0;orthogonalLoop=1;jettySize=auto;html=1;exitX=0.5;exitY=0;exitDx=0;exitDy=0;entryX=0.5;entryY=1;entryDx=0;entryDy=0;strokeColor=default;fontSize=16;endArrow=none;endFill=0;fillColor=none;" edge="1" parent="1" source="3NOah_PCtpc5vJygW-3I-7" target="3NOah_PCtpc5vJygW-3I-1">
          <mxGeometry relative="1" as="geometry" />
        </mxCell>
        <mxCell id="3NOah_PCtpc5vJygW-3I-7" value="&lt;u&gt;email地址&lt;/u&gt;" style="ellipse;whiteSpace=wrap;html=1;fontSize=16;" vertex="1" parent="1">
          <mxGeometry x="440" y="420" width="120" height="40" as="geometry" />
        </mxCell>
        <mxCell id="3NOah_PCtpc5vJygW-3I-30" style="edgeStyle=none;rounded=0;orthogonalLoop=1;jettySize=auto;html=1;exitX=0;exitY=0.5;exitDx=0;exitDy=0;entryX=0.75;entryY=1;entryDx=0;entryDy=0;strokeColor=default;fontSize=16;endArrow=none;endFill=0;fillColor=none;" edge="1" parent="1" source="3NOah_PCtpc5vJygW-3I-8" target="3NOah_PCtpc5vJygW-3I-1">
          <mxGeometry relative="1" as="geometry" />
        </mxCell>
        <mxCell id="3NOah_PCtpc5vJygW-3I-8" value="联系电话" style="ellipse;whiteSpace=wrap;html=1;fontSize=16;" vertex="1" parent="1">
          <mxGeometry x="580" y="390" width="120" height="40" as="geometry" />
        </mxCell>
        <mxCell id="3NOah_PCtpc5vJygW-3I-16" value="邮件" style="rounded=0;whiteSpace=wrap;html=1;fontSize=16;" vertex="1" parent="1">
          <mxGeometry x="445" y="120" width="100" height="50" as="geometry" />
        </mxCell>
        <mxCell id="3NOah_PCtpc5vJygW-3I-23" style="edgeStyle=none;rounded=0;orthogonalLoop=1;jettySize=auto;html=1;exitX=1;exitY=0.5;exitDx=0;exitDy=0;entryX=0;entryY=0.5;entryDx=0;entryDy=0;strokeColor=default;fontSize=16;endArrow=none;endFill=0;fillColor=none;" edge="1" parent="1" source="3NOah_PCtpc5vJygW-3I-17" target="3NOah_PCtpc5vJygW-3I-16">
          <mxGeometry relative="1" as="geometry" />
        </mxCell>
        <mxCell id="3NOah_PCtpc5vJygW-3I-17" value="邮件标题" style="ellipse;whiteSpace=wrap;html=1;fontSize=16;" vertex="1" parent="1">
          <mxGeometry x="270" y="110" width="120" height="40" as="geometry" />
        </mxCell>
        <mxCell id="3NOah_PCtpc5vJygW-3I-24" style="edgeStyle=none;rounded=0;orthogonalLoop=1;jettySize=auto;html=1;exitX=0.5;exitY=1;exitDx=0;exitDy=0;entryX=0.25;entryY=0;entryDx=0;entryDy=0;strokeColor=default;fontSize=16;endArrow=none;endFill=0;fillColor=none;" edge="1" parent="1" source="3NOah_PCtpc5vJygW-3I-19" target="3NOah_PCtpc5vJygW-3I-16">
          <mxGeometry relative="1" as="geometry" />
        </mxCell>
        <mxCell id="3NOah_PCtpc5vJygW-3I-19" value="&lt;u&gt;邮件ID&lt;/u&gt;" style="ellipse;whiteSpace=wrap;html=1;fontSize=16;" vertex="1" parent="1">
          <mxGeometry x="365" y="60" width="120" height="40" as="geometry" />
        </mxCell>
        <mxCell id="3NOah_PCtpc5vJygW-3I-25" style="edgeStyle=none;rounded=0;orthogonalLoop=1;jettySize=auto;html=1;exitX=0.5;exitY=1;exitDx=0;exitDy=0;entryX=0.75;entryY=0;entryDx=0;entryDy=0;strokeColor=default;fontSize=16;endArrow=none;endFill=0;fillColor=none;" edge="1" parent="1" source="3NOah_PCtpc5vJygW-3I-20" target="3NOah_PCtpc5vJygW-3I-16">
          <mxGeometry relative="1" as="geometry" />
        </mxCell>
        <mxCell id="3NOah_PCtpc5vJygW-3I-20" value="邮件内容" style="ellipse;whiteSpace=wrap;html=1;fontSize=16;" vertex="1" parent="1">
          <mxGeometry x="505" y="60" width="120" height="40" as="geometry" />
        </mxCell>
        <mxCell id="3NOah_PCtpc5vJygW-3I-26" style="edgeStyle=none;rounded=0;orthogonalLoop=1;jettySize=auto;html=1;exitX=0;exitY=0.5;exitDx=0;exitDy=0;entryX=1;entryY=0.5;entryDx=0;entryDy=0;strokeColor=default;fontSize=16;endArrow=none;endFill=0;fillColor=none;" edge="1" parent="1" source="3NOah_PCtpc5vJygW-3I-21" target="3NOah_PCtpc5vJygW-3I-16">
          <mxGeometry relative="1" as="geometry" />
        </mxCell>
        <mxCell id="3NOah_PCtpc5vJygW-3I-21" value="邮件附件" style="ellipse;whiteSpace=wrap;html=1;fontSize=16;" vertex="1" parent="1">
          <mxGeometry x="595" y="110" width="120" height="40" as="geometry" />
        </mxCell>
      </root>
    </mxGraphModel>
  </diagram>
</mxfile>
